PathFileType	4	(X/Y/Z)	C:\Users\Basilio\Documents\Thesis Gigler\squatting_fais\c3dfiles\073\SLS_back_pre2\markers_experimental.trc
DataRate	CameraRate	NumFrames	NumMarkers	Units	OrigDataRate	OrigDataStartFrame	OrigNumFrames
200.000000	200.000000	4	61	mm	200.000000	0	1267
Frame#	Time	FHD			LBHD			RBHD			C7			T10			CLAV			LSHO			LUUPA			LMUPA			LDUPA			LLEP			LMEP			LRAD			LUL			LRFIN			RSHO			RUPA1			RMUPA			RDUPA			RLEP			RMEP			RRAD			RUL			RUFIN			LASI			RASI			USACR			LSACR			RSACR			LTHI1			LTHI2			LTHI3			LTHI4			LLFC			LMFC			LTIB1			LTIB2			LTIB3			LTIB4			LLMAL			LMMAL			LHEE			LMT1			LMT2			LMT5			RTHI			RTHI2			RTHI3			RTHI4			RLFC			RTIB1			RTIB2			RTIB3			RTIB4			RLMAL			RMMAL			RHEE			RMT1			RMT2			RMT5			RMFC			
		X1	Y1	Z1	X2	Y2	Z2	X3	Y3	Z3	X4	Y4	Z4	X5	Y5	Z5	X6	Y6	Z6	X7	Y7	Z7	X8	Y8	Z8	X9	Y9	Z9	X10	Y10	Z10	X11	Y11	Z11	X12	Y12	Z12	X13	Y13	Z13	X14	Y14	Z14	X15	Y15	Z15	X16	Y16	Z16	X17	Y17	Z17	X18	Y18	Z18	X19	Y19	Z19	X20	Y20	Z20	X21	Y21	Z21	X22	Y22	Z22	X23	Y23	Z23	X24	Y24	Z24	X25	Y25	Z25	X26	Y26	Z26	X27	Y27	Z27	X28	Y28	Z28	X29	Y29	Z29	X30	Y30	Z30	X31	Y31	Z31	X32	Y32	Z32	X33	Y33	Z33	X34	Y34	Z34	X35	Y35	Z35	X36	Y36	Z36	X37	Y37	Z37	X38	Y38	Z38	X39	Y39	Z39	X40	Y40	Z40	X41	Y41	Z41	X42	Y42	Z42	X43	Y43	Z43	X44	Y44	Z44	X45	Y45	Z45	X46	Y46	Z46	X47	Y47	Z47	X48	Y48	Z48	X49	Y49	Z49	X50	Y50	Z50	X51	Y51	Z51	X52	Y52	Z52	X53	Y53	Z53	X54	Y54	Z54	X55	Y55	Z55	X56	Y56	Z56	X57	Y57	Z57	X58	Y58	Z58	X59	Y59	Z59	X60	Y60	Z60	X61	Y61	Z61	

1	0	-165.0508117675782	1676.481079101563	-788.7369384765627	-300.5388488769532	1648.460571289063	-809.692810058594	-322.2740478515626	1638.537475585938	-675.2004394531251	-362.0503540039063	1532.7666015625	-731.3726806640626	-409.2547607421876	1196.158447265625	-722.4970092773439	-239.6839599609376	1446.130981445313	-730.3359375000001	-276.2467041015626	1483.227416992188	-878.4129028320315	-197.574691772461	1398.128540039063	-966.7011718750002	-155.5083312988282	1420.225341796875	-947.664733886719	-134.9149932861328	1370.057983398438	-976.322448730469	-31.19949340820313	1344.828857421875	-980.8178710937502	-34.47241973876954	1291.613891601563	-934.280212402344	230.2330474853516	1372.643310546875	-874.830261230469	232.7021942138672	1364.281494140625	-949.0551757812502	311.5957031250001	1382.940063476563	-869.9771728515627	-251.160629272461	1488.98583984375	-584.2859497070314	-158.7631988525391	1381.678955078125	-489.3563842773439	-118.9908218383789	1402.677490234375	-506.4373474121095	-96.84516906738284	1351.1396484375	-485.4096069335939	-6.085987091064455	1330.76123046875	-488.2185974121095	-13.48449134826661	1277.6337890625	-551.9583129882814	241.7064056396485	1360.617431640625	-610.7562255859376	254.0636749267579	1363.563232421875	-537.3562011718751	332.8371276855469	1385.728149414063	-616.1618652343751	-247.408187866211	1030.171752929688	-845.7258911132815	-249.4590301513672	1025.852172851563	-593.4495239257814	-430.2750244140626	1096.216430664063	-721.2300415039064	-441.3081970214845	1067.601806640625	-750.2837524414064	-447.863739013672	1065.8154296875	-693.9610595703126	-221.778305053711	710.2360839843751	-878.261901855469	-175.0907897949219	642.9013061523439	-854.343688964844	-138.7133331298828	655.0383300781251	-823.5388793945315	-196.2800598144532	586.9006958007814	-846.3347778320315	-200.4799499511719	540.2583618164064	-844.789733886719	-221.3308410644532	541.9098510742189	-710.8201293945314	-341.4043579101563	410.8255920410157	-807.1489868164065	-394.5387268066407	444.7003784179689	-866.1987304687502	-387.8718872070314	407.1296386718751	-844.5583496093752	-461.7626342773439	377.2792663574219	-817.437194824219	-591.1103515625001	385.186981201172	-858.7530517578127	-573.0064086914064	388.8430175781251	-770.7842407226565	-643.6878051757814	433.2684020996095	-823.6030883789065	-580.9265747070314	223.9591064453126	-765.1965942382814	-576.4567871093751	218.5403900146485	-803.5720214843752	-604.9866333007814	239.5146484375001	-860.5808105468752	-346.0301513671876	792.8300781250002	-544.6001586914064	-310.5265808105469	737.0657348632814	-548.0216064453126	-276.9976806640626	738.7080688476564	-548.1481323242189	-335.2314147949219	662.4408569335939	-575.1564331054689	-316.7216186523438	512.8841552734376	-602.6329345703126	-281.1483154296876	356.7525634765626	-705.4655151367189	-308.5215148925782	270.0480957031251	-647.4792480468751	-283.1891174316407	271.2695312500001	-689.0219726562501	-304.4064025878907	231.2921600341797	-726.2405395507814	-360.1798095703126	99.40849304199222	-686.5864868164064	-353.6875000000001	129.6673278808594	-771.2528076171877	-431.0496826171876	81.69174957275392	-743.7137451171876	-206.4578857421876	55.43513107299806	-760.1450805664064	-206.0060729980469	51.75399398803712	-719.0079345703126	-248.5266723632813	34.49131011962891	-670.4189453125001	nan	nan	nan	
2	0.005	-164.904525756836	1676.544189453125	-788.5750732421877	-300.4168395996094	1648.592529296875	-809.530212402344	-322.0596008300782	1638.5791015625	-674.9619140625001	-361.8775634765626	1532.868774414063	-731.2229614257814	-409.1701660156251	1196.241088867188	-722.4182128906251	-239.5177459716797	1446.175537109375	-730.1603393554689	-276.0621643066407	1483.302001953125	-878.2248535156252	-197.3250427246094	1398.202758789063	-966.6473388671877	-155.2664184570313	1420.33349609375	-947.5386352539065	-134.6795349121094	1370.193969726563	-976.2313232421877	-30.97465324401856	1344.945556640625	-980.6814575195315	-34.28622817993165	1291.709350585938	-934.1904907226565	230.4565429687501	1372.618408203125	-874.7821044921877	232.9104766845704	1364.352783203125	-948.9976806640627	311.8893432617188	1382.905151367188	-869.8792114257815	-251.0121154785157	1489.005859375	-584.0901489257814	-158.6146240234375	1381.707763671875	-489.2203674316407	-118.8908920288086	1402.677734375	-506.2960510253907	-96.72893524169925	1351.138427734375	-485.2808532714845	-5.981628894805909	1330.727294921875	-488.0413208007814	-13.36632919311524	1277.649536132813	-551.8464355468751	241.7646179199219	1360.598510742188	-610.5983276367189	254.1908416748047	1363.52490234375	-537.2115478515626	332.9767456054688	1385.717041015625	-616.0525512695314	-247.2539215087891	1030.200317382813	-845.6192626953127	-249.4776153564454	1025.899047851563	-593.2738037109376	-430.1238708496095	1096.293823242188	-721.2523803710939	-441.2045898437501	1067.694458007813	-750.3441162109376	-447.7601623535157	1065.88134765625	-694.0865478515626	-221.7348632812501	710.3041381835939	-878.3192138671877	-175.0950775146485	643.0065307617189	-854.524597167969	-138.6216125488282	655.1162109375001	-823.7039794921877	-196.3130187988282	586.9917602539064	-846.4973754882815	-200.4435729980469	540.3104248046876	-845.0151367187502	-221.1385498046876	541.9645996093751	-710.9302978515626	-341.3405761718751	410.942596435547	-807.1587524414065	-394.5368957519532	444.772918701172	-866.1592407226565	-387.1844787597657	407.1100158691407	-843.8856201171877	-461.8004760742189	377.2744750976563	-817.6077880859377	-591.1372070312501	385.2763061523439	-858.4588012695315	-572.9367675781251	388.9477539062501	-770.5063476562502	-643.6317749023439	433.3458862304689	-823.2671508789065	-580.8451538085939	224.0458679199219	-764.9918212890626	-576.9458618164064	218.8988647460938	-803.658142089844	-604.9691772460939	239.5552520751954	-860.195007324219	-346.1814270019532	792.8666992187502	-544.5589599609376	-310.7023010253907	737.1322631835939	-547.9199829101564	-277.1336669921876	738.7078857421876	-548.1151123046876	-335.4035339355469	662.4778442382814	-575.1685791015626	-316.9433898925782	512.9384765625001	-602.5425415039064	-281.1309814453126	356.7604370117188	-705.2312011718751	-308.6437988281251	270.0917663574219	-647.3452148437501	-283.2223510742188	271.2885437011719	-688.8609619140626	-304.3945617675782	231.295883178711	-726.0610961914064	-360.1737060546876	99.40884399414065	-686.5043334960939	-353.6716308593751	129.7576293945313	-771.1746215820315	-431.0313110351564	81.74861907958986	-743.7457275390626	-206.4580993652344	55.43708801269533	-760.1312866210939	-206.0254821777344	51.72981262207033	-718.9404907226564	-248.5203247070313	34.50926208496094	-670.4143676757814	nan	nan	nan	
3	0.01	-164.7234039306641	1676.621459960938	-788.351989746094	-300.1611633300782	1648.67431640625	-809.2738037109377	-321.7917175292969	1638.598510742188	-674.7587890625001	-361.6795654296876	1532.944091796875	-731.0162353515626	-409.0249633789064	1196.3369140625	-722.4088134765626	-239.3237915039063	1446.212646484375	-730.0438232421876	-275.8221435546876	1483.428588867188	-878.0104980468752	-197.1207733154297	1398.458740234375	-966.4537353515627	-155.0768737792969	1420.4599609375	-947.3562622070315	-134.4335021972657	1370.369873046875	-976.0927734375002	-30.79390716552735	1345.064331054688	-980.6023559570315	-34.05913543701173	1291.8154296875	-934.0903930664065	230.6106872558594	1372.651000976563	-874.750427246094	233.1055145263672	1364.375	-948.9366455078127	312.1549682617188	1382.877807617188	-869.7744750976565	-250.8638916015626	1489.062377929688	-583.9139404296876	-158.5285034179688	1381.693481445313	-489.0874023437501	-118.7689895629883	1402.673583984375	-506.1170654296876	-96.60916900634768	1351.126586914063	-485.1444091796876	-5.847772121429444	1330.651977539063	-487.9473571777345	-13.2398042678833	1277.625610351563	-551.6337890625001	241.8807525634766	1360.585693359375	-610.4270629882814	254.2969665527344	1363.456787109375	-537.1421508789064	333.0883789062501	1385.646118164063	-615.9472045898439	-247.040512084961	1030.256713867188	-845.4771728515627	-249.4533843994141	1025.944213867188	-593.1322631835939	-429.9884643554689	1096.397094726563	-721.2907714843751	-441.0281066894532	1067.746337890625	-750.4069824218751	-447.5794067382814	1065.953857421875	-694.2011718750001	-221.6809539794922	710.4199829101564	-878.451843261719	-174.9600524902344	643.0151977539064	-854.732849121094	-138.4940338134766	655.1731567382814	-823.915466308594	-196.2742462158204	587.0395507812501	-846.693298339844	-200.4287261962891	540.4050903320314	-845.173034667969	-221.0557861328126	541.9882812500001	-711.1470336914064	-341.3405761718751	410.942596435547	-807.1587524414065	-394.5951538085939	444.8554077148439	-866.123229980469	-387.1796875000001	407.1997680664064	-843.884704589844	-461.8011779785157	377.3685607910157	-817.506774902344	-591.1923828125001	385.3707885742189	-858.202331542969	-572.8610839843751	389.0275268554689	-770.2878417968752	-643.6008300781251	433.4468383789064	-822.9281005859377	-580.7787475585939	224.1392974853516	-764.7510375976564	-576.8934326171876	218.9544372558594	-803.4647216796877	-605.0094604492189	239.6333465576172	-859.8718261718752	-346.3336181640626	792.9068603515627	-544.5844726562501	-310.8266601562501	737.1537475585939	-547.8981323242189	-277.2711791992188	738.6986694335939	-548.0756225585939	-335.5574035644532	662.4833984375001	-575.1433105468751	-317.1001281738282	512.9735107421876	-602.5097656250001	-281.1189880371094	356.7862243652344	-705.0842895507814	-308.7540893554688	270.1350402832032	-647.2515869140626	-283.2493591308594	271.3053588867188	-688.7108764648439	-304.3477478027344	231.342758178711	-725.9323120117189	-360.1818542480469	99.40321350097659	-686.4611206054689	-353.6511535644532	129.8001403808594	-771.1289672851565	-431.038543701172	81.7722854614258	-743.7268066406251	-206.4564819335938	55.43658447265626	-760.1311035156251	-206.0276336669922	51.69739532470705	-718.9472045898439	-248.5168457031251	34.46281814575196	-670.4129638671876	nan	nan	nan	
4	0.015	-164.549057006836	1676.70263671875	-788.060974121094	-299.8489074707032	1648.807373046875	-809.0000610351565	-321.5316162109376	1638.629028320313	-674.4406738281251	-361.4677124023438	1533.03369140625	-730.8328247070314	-408.867645263672	1196.412719726563	-722.3742065429689	-239.0982666015626	1446.255859375	-729.8859863281251	-275.6007385253907	1483.553833007813	-877.8009033203127	-196.8303833007813	1398.585205078125	-966.3508300781252	-154.8139953613282	1420.623046875	-947.2320556640627	-134.1528015136719	1370.588623046875	-975.9591064453127	-30.53792572021485	1345.24755859375	-980.4932861328127	-33.81929016113282	1291.9287109375	-933.9786376953127	230.7701873779297	1372.676879882813	-874.7159423828127	233.2770233154297	1364.4521484375	-948.8560180664065	312.4231567382813	1382.841674804688	-869.7198486328127	-250.6635284423829	1489.081420898438	-583.7764282226564	-158.4071655273438	1381.694946289063	-488.986785888672	-118.6539916992188	1402.683715820313	-505.9871215820314	-96.52384948730472	1351.120483398438	-485.0126342773439	-5.744556427001954	1330.619750976563	-487.777069091797	-13.12261486053467	1277.657104492188	-551.5393066406251	242.0440979003907	1360.511596679688	-610.2453002929689	254.3972320556641	1363.417114257813	-537.0466918945314	333.2070922851563	1385.597900390625	-615.7704467773439	-246.7508697509766	1030.349365234375	-845.2874755859377	-249.4947357177735	1025.969970703125	-592.9667358398439	-429.8767700195314	1096.47998046875	-721.3570556640626	-440.8919982910157	1067.863525390625	-750.4372558593751	-447.4508361816407	1066.0361328125	-694.2666015625001	-221.6451416015626	710.5068359375001	-878.6043701171877	-174.8854064941407	643.1293334960939	-854.8842773437502	-138.4803924560547	655.2261352539064	-824.0666503906252	-196.2312011718751	587.1136474609376	-846.8758544921877	-200.3811645507813	540.4758300781251	-845.3848266601565	-220.9044647216797	542.0057983398439	-711.2544555664064	-341.3231201171876	411.0464172363282	-807.2348632812502	-394.644744873047	444.9830017089845	-866.0911254882815	-387.1669006347657	407.2882080078126	-843.8616943359377	-461.7430114746095	377.4746704101563	-817.4542236328127	-591.2226562500001	385.4719848632814	-858.0207519531252	-572.8323364257814	389.1341857910157	-770.0885009765627	-643.5838623046876	433.5724182128907	-822.607604980469	-580.7299804687501	224.2449493408204	-764.5572509765626	-576.9385375976564	219.0770721435547	-803.232604980469	-605.0283203125001	239.7323760986329	-859.516784667969	-346.4158325195313	792.9512329101565	-544.6065673828126	-310.9562988281251	737.2036743164064	-547.8968505859376	-277.3813171386719	738.7256469726564	-548.0289916992189	-335.6999511718751	662.5432128906251	-575.1698608398439	-317.2620239257813	512.9846801757814	-602.4881591796876	-281.0639953613282	356.8259277343751	-705.0479125976564	-308.8047790527344	270.1950073242188	-647.2437744140626	-283.2916870117188	271.3173217773438	-688.6488647460939	-304.3546752929688	231.3721466064454	-725.8328857421876	-360.1708374023438	99.38001251220706	-686.4918212890626	-353.5908203125001	129.8730773925782	-771.1262207031252	-431.0273742675782	81.78470611572267	-743.7465209960939	-206.4312896728516	55.44191360473634	-760.0825805664064	-206.016342163086	51.68270111083986	-718.9392700195314	-248.5234069824219	34.46412658691407	-670.3835449218751	nan	nan	nan	
